<?xml version="1.0" standalone="no"?>
<!DOCTYPE svg PUBLIC "-//W3C//DTD SVG 20010904//EN"
 "http://www.w3.org/TR/2001/REC-SVG-20010904/DTD/svg10.dtd">
<svg version="1.0" xmlns="http://www.w3.org/2000/svg"
 width="500.000000pt" height="500.000000pt" viewBox="0 0 500.000000 500.000000"
 preserveAspectRatio="xMidYMid meet">

<g transform="translate(0.000000,500.000000) scale(0.100000,-0.100000)"
fill="#000000" stroke="none">
<path d="M0 2500 l0 -2500 575 0 575 0 0 1705 c0 1440 2 1710 14 1733 9 17 13
51 11 90 -2 53 -6 67 -30 92 -17 17 -33 26 -43 23 -10 -4 -13 -2 -8 6 5 8 0
10 -19 7 -22 -4 -25 -3 -15 10 15 17 24 19 14 2 -4 -7 -3 -8 5 -4 18 12 3 25
-22 18 -20 -5 -21 -4 -7 13 8 10 10 16 3 12 -7 -4 -21 6 -34 24 -21 30 -23 31
-36 13 -7 -10 -13 -14 -13 -9 0 4 -8 1 -19 -9 -32 -29 -77 -36 -124 -20 -23 9
-47 17 -54 18 -7 1 -16 6 -20 11 -4 4 -1 5 7 0 12 -6 13 -5 2 6 -10 11 -20 5
-60 -32 -26 -25 -87 -81 -137 -124 -49 -44 -89 -84 -87 -90 2 -5 0 -7 -4 -3
-4 4 -13 3 -20 -3 -8 -7 -11 -27 -7 -63 4 -42 1 -61 -13 -85 -54 -91 -192 -95
-250 -6 -12 19 -15 40 -12 85 3 49 10 65 33 90 42 44 80 53 141 35 27 -8 49
-15 50 -15 0 0 22 21 50 46 27 26 48 53 46 63 -2 14 -1 14 7 1 8 -12 14 -10
38 12 15 15 48 46 73 69 25 23 44 49 43 58 -2 10 0 11 3 4 3 -7 10 -13 15 -13
6 0 7 5 4 10 -3 6 0 10 8 10 7 0 19 10 25 23 10 20 25 80 23 92 -1 3 13 21 30
40 36 39 97 54 151 36 39 -13 98 -65 98 -87 0 -8 4 -13 9 -10 5 3 11 -1 14 -9
4 -9 1 -12 -8 -9 -16 7 -9 -32 8 -43 6 -4 7 -1 2 8 -5 8 1 6 13 -5 12 -10 20
-22 17 -26 -2 -4 20 -28 49 -53 49 -42 75 -52 92 -34 4 3 -3 4 -16 2 -15 -3
-33 6 -57 30 -20 19 -31 35 -24 35 7 0 9 5 6 10 -3 6 -1 10 5 10 7 0 9 -7 6
-16 -4 -11 1 -18 14 -21 11 -3 20 -12 20 -19 0 -8 5 -14 11 -14 6 0 8 8 4 19
-3 12 0 21 10 25 8 3 15 10 15 15 0 6 -7 8 -15 4 -9 -3 -15 -2 -14 3 4 21 -2
28 -11 14 -6 -10 -10 195 -10 588 l0 602 -575 0 -575 0 0 -2500z m1000 1454
c0 -8 -19 -13 -24 -6 -3 5 1 9 9 9 8 0 15 -2 15 -3z m29 -15 c-16 -10 -23 -4
-14 10 3 6 11 8 17 5 6 -4 5 -9 -3 -15z m91 -110 c0 -11 -4 -17 -10 -14 -5 3
-10 13 -10 21 0 8 5 14 10 14 6 0 10 -9 10 -21z m-25 -39 c3 -5 2 -10 -4 -10
-5 0 -13 5 -16 10 -3 6 -2 10 4 10 5 0 13 -4 16 -10z m65 -10 c0 -5 -2 -10 -4
-10 -3 0 -8 5 -11 10 -3 6 -1 10 4 10 6 0 11 -4 11 -10z m-275 -119 c3 -5 2
-12 -3 -15 -5 -3 -9 1 -9 9 0 17 3 19 12 6z m271 -80 c-3 -5 0 -12 6 -14 7 -3
0 -6 -16 -6 -24 -1 -26 1 -17 13 10 12 9 21 -5 43 l-18 28 28 -27 c15 -15 25
-31 22 -37z m1 -98 c-3 -10 -5 -2 -5 17 0 19 2 27 5 18 2 -10 2 -26 0 -35z
m-34 24 c3 -8 1 -20 -4 -28 -6 -10 -9 -7 -9 14 0 29 5 35 13 14z"/>
<path d="M818 3900 c-21 -17 -30 -66 -16 -92 5 -10 22 -25 38 -33 33 -17 53
-20 30 -4 -12 8 -10 9 9 7 20 -2 29 5 44 34 l20 37 -26 35 c-29 37 -66 43 -99
16z m79 -6 c-3 -3 -12 -4 -19 -1 -8 3 -5 6 6 6 11 1 17 -2 13 -5z"/>
<path d="M2740 3870 c-18 -18 -33 -20 -170 -20 l-150 0 0 -200 0 -200 55 0 55
0 0 80 0 80 90 0 90 0 0 40 0 39 -87 3 -88 3 0 35 0 35 98 3 c78 2 97 6 97 18
0 11 4 12 19 4 65 -34 128 43 69 84 -30 21 -54 20 -78 -4z"/>
<path d="M2860 3665 l0 -215 55 0 c37 0 55 4 55 13 0 8 3 8 9 -2 5 -8 31 -16
63 -18 62 -5 108 18 136 67 9 16 19 30 22 30 3 0 12 -13 22 -29 36 -64 122
-87 204 -56 41 15 84 61 84 88 0 4 -24 7 -54 7 -39 0 -55 -4 -60 -15 -9 -23
-62 -19 -80 7 -8 12 -13 25 -10 30 3 4 52 8 110 8 l104 0 0 32 c0 17 -9 51
-21 74 -23 49 -82 84 -140 84 -49 -1 -116 -34 -137 -70 l-19 -31 -22 36 c-13
22 -36 42 -58 52 -47 19 -121 12 -140 -13 -11 -15 -13 -7 -13 59 l0 77 -55 0
-55 0 0 -215z m214 3 c21 -30 21 -106 -1 -130 -20 -22 -61 -23 -85 -1 -12 11
-18 30 -18 62 0 59 21 91 60 91 18 0 34 -8 44 -22z m316 7 c18 -21 5 -32 -36
-29 -45 4 -51 9 -34 29 16 19 54 19 70 0z"/>
<path d="M4410 3801 c0 -37 -2 -41 -25 -41 -21 0 -25 -5 -25 -31 l0 -31 -35
30 c-86 76 -227 40 -259 -65 l-15 -48 0 38 c-1 21 -7 50 -15 66 -32 62 -139
69 -183 12 -11 -14 -12 -13 -13 7 0 19 -5 22 -37 22 -21 0 -55 3 -75 6 -31 5
-41 2 -62 -19 -24 -24 -26 -24 -26 -7 0 17 -7 20 -55 20 l-55 0 0 -155 0 -155
55 0 55 0 0 94 c0 90 1 96 26 115 15 12 35 21 45 21 17 0 19 -9 19 -115 l0
-115 54 0 54 0 4 104 c4 110 14 136 52 136 40 0 46 -18 46 -132 l0 -108 55 0
55 0 0 68 1 67 13 -38 c25 -70 78 -107 153 -107 50 0 120 36 138 71 8 15 15
30 15 34 0 3 -24 5 -54 5 -39 0 -55 -4 -60 -15 -6 -16 -52 -20 -72 -7 -6 4
-14 17 -18 30 -7 22 -7 22 105 22 l112 0 -6 38 c-3 20 -8 45 -12 55 -6 13 -2
17 19 17 l26 0 0 -104 c0 -102 1 -105 27 -126 21 -17 38 -20 82 -18 55 3 56 4
59 34 3 28 0 32 -27 37 l-31 7 0 85 0 85 30 0 c28 0 30 3 30 35 0 32 -2 35
-29 35 -27 0 -30 3 -33 38 l-3 37 -52 3 -53 3 0 -40z m-160 -126 c18 -22 3
-35 -41 -35 -25 0 -39 5 -39 13 0 34 57 50 80 22z"/>
<path d="M2730 3605 l0 -155 55 0 55 0 0 155 0 155 -55 0 -55 0 0 -155z"/>
<path d="M1230 3690 c0 -5 5 -10 11 -10 5 0 7 5 4 10 -3 6 -8 10 -11 10 -2 0
-4 -4 -4 -10z"/>
<path d="M1220 3660 c0 -5 5 -10 11 -10 5 0 7 5 4 10 -3 6 -8 10 -11 10 -2 0
-4 -4 -4 -10z"/>
<path d="M1274 3625 c-18 -15 -18 -15 0 -8 14 5 17 3 11 -6 -6 -10 -3 -11 14
-1 12 6 19 15 16 21 -8 13 -18 11 -41 -6z"/>
<path d="M1209 3543 c0 -5 -2 -24 -4 -43 -3 -29 -2 -31 5 -12 12 28 24 29 15
1 -6 -19 -5 -20 8 -8 15 13 14 15 -2 29 -10 9 -16 21 -13 28 2 6 1 12 -2 12
-3 0 -6 -3 -7 -7z"/>
<path d="M280 3483 c-25 -10 -50 -45 -50 -68 0 -12 9 -34 21 -49 41 -52 132
-23 132 43 0 50 -58 92 -103 74z"/>
<path d="M1446 3453 c-6 -14 -5 -15 5 -6 7 7 10 15 7 18 -3 3 -9 -2 -12 -12z"/>
<path d="M1211 3445 c1 -19 18 -51 18 -35 0 8 -4 22 -9 30 -5 8 -9 11 -9 5z"/>
<path d="M1388 3443 c6 -2 18 -2 25 0 6 3 1 5 -13 5 -14 0 -19 -2 -12 -5z"/>
<path d="M1240 3420 c0 -5 5 -10 10 -10 6 0 10 5 10 10 0 6 -4 10 -10 10 -5 0
-10 -4 -10 -10z"/>
<path d="M1284 3345 c0 -15 5 -21 14 -18 11 5 11 7 0 15 -9 7 -7 8 10 5 26 -6
21 8 -6 15 -13 4 -18 -1 -18 -17z"/>
</g>
</svg>
