<?xml version="1.0" standalone="no"?>
<!DOCTYPE svg PUBLIC "-//W3C//DTD SVG 20010904//EN"
 "http://www.w3.org/TR/2001/REC-SVG-20010904/DTD/svg10.dtd">
<svg version="1.0" xmlns="http://www.w3.org/2000/svg"
 width="555.000000pt" height="424.000000pt" viewBox="0 0 555.000000 424.000000"
 preserveAspectRatio="xMidYMid meet">

<g transform="translate(0.000000,424.000000) scale(0.100000,-0.100000)"
fill="#000000" stroke="none">
<path d="M0 2120 l0 -2120 2775 0 2775 0 0 2120 0 2120 -2775 0 -2775 0 0
-2120z m2960 2006 c284 -65 501 -185 705 -390 134 -135 197 -221 272 -376 107
-219 138 -359 138 -620 0 -156 -4 -200 -23 -284 -63 -273 -216 -554 -412 -755
-167 -171 -394 -312 -603 -372 -68 -20 -82 -22 -110 -10 -20 8 -112 16 -247
21 -224 8 -294 19 -435 65 -144 48 -326 142 -425 220 -61 47 -260 256 -297
311 -107 158 -177 317 -225 514 -26 107 -36 371 -18 492 35 244 134 475 290
678 58 75 260 258 345 311 157 98 343 172 515 203 108 20 432 15 530 -8z
m-2136 -2962 c-3 -30 -12 -79 -18 -107 l-11 -52 -293 -3 -292 -2 0 25 c0 26
19 159 26 183 3 9 71 12 299 12 l296 0 -7 -56z m292 34 c-4 -13 -13 -58 -19
-101 -8 -47 -18 -82 -27 -87 -8 -5 -54 -10 -102 -10 -80 0 -88 2 -88 19 0 24
30 183 36 193 3 5 50 8 106 8 99 0 100 0 94 -22z m636 10 c22 -6 52 -27 69
-46 27 -30 30 -40 27 -90 l-3 -57 -40 -7 c-66 -11 -620 -9 -632 3 -7 7 -7 24
-1 52 5 23 11 62 14 87 3 25 7 51 9 58 6 17 500 17 557 0z m804 -15 c-2 -16
-10 -58 -16 -94 -6 -36 -16 -72 -20 -80 -8 -12 -58 -14 -297 -14 -281 0 -288
0 -288 20 1 30 15 115 26 158 l10 37 295 0 296 0 -6 -27z m636 3 c71 -35 102
-132 58 -176 -19 -19 -33 -20 -324 -20 -320 0 -328 1 -319 45 2 11 8 45 13 75
7 46 11 65 19 98 1 2 117 2 259 0 227 -3 261 -5 294 -22z m710 14 c57 -16 98
-72 98 -134 0 -35 -5 -53 -17 -62 -28 -21 -639 -20 -646 1 -4 8 0 39 8 70 8
31 15 71 15 89 0 18 3 36 7 39 11 11 495 8 535 -3z m792 1 c11 -17 -25 -186
-42 -199 -12 -9 -83 -12 -297 -10 l-280 3 1 39 c1 33 17 118 30 164 3 9 70 12
293 12 159 0 292 -4 295 -9z m743 -13 c-3 -13 -11 -54 -18 -93 -19 -116 16
-105 -348 -105 -175 0 -320 2 -323 5 -5 6 4 69 23 163 l10 52 331 0 330 0 -5
-22z m-4662 -301 c-3 -23 -7 -55 -8 -71 -3 -41 -30 -47 -230 -45 -92 1 -170 0
-172 -3 -2 -2 -6 -22 -9 -43 -3 -22 -12 -73 -21 -113 -8 -40 -15 -87 -15 -103
l0 -30 -102 3 c-96 3 -103 4 -101 23 3 20 6 46 19 135 4 25 9 49 12 54 3 5 6
21 7 35 6 75 30 177 44 189 12 9 83 12 299 12 l284 -1 -7 -42z m279 37 c9 -3
14 -10 11 -14 -3 -4 -7 -23 -10 -41 -2 -19 -11 -72 -20 -119 -9 -47 -22 -123
-31 -169 -8 -46 -17 -88 -20 -92 -3 -5 -46 -9 -95 -9 -104 0 -108 3 -90 83 6
29 14 68 16 87 3 19 13 73 21 120 8 47 17 98 19 114 3 16 10 33 17 38 15 9
159 11 182 2z m761 -6 c4 -4 -4 -21 -19 -38 -31 -37 -31 -38 -8 -68 20 -25 19
-45 -8 -160 -15 -68 -58 -118 -128 -149 -51 -22 -62 -23 -313 -23 -222 0 -260
2 -265 15 -4 8 -1 22 6 30 6 8 9 18 7 22 -3 5 -1 28 4 53 12 60 39 214 46 268
4 32 12 46 27 52 25 11 641 8 651 -2z m679 -28 c-4 -90 -9 -109 -29 -114 -11
-3 -96 -5 -190 -4 -93 2 -176 -1 -182 -5 -7 -5 -13 -24 -13 -43 l0 -34 190 0
190 0 -1 -32 c0 -18 -6 -64 -12 -103 l-12 -70 -290 -3 c-159 -1 -295 0 -301 2
-10 4 -6 35 47 316 5 30 12 67 14 83 2 15 7 32 10 37 4 7 111 9 293 8 l287 -3
-1 -35z m746 32 c0 -4 -13 -23 -28 -42 -27 -32 -28 -35 -14 -62 10 -22 12 -48
7 -106 -4 -42 -11 -84 -15 -92 -5 -8 -10 -35 -13 -60 -9 -82 -7 -80 -118 -80
-74 0 -97 3 -94 13 11 32 45 252 40 266 -4 14 -23 16 -117 14 -62 -1 -116 -2
-119 -3 -6 0 -22 -83 -40 -207 l-11 -83 -104 0 c-102 0 -104 0 -104 23 0 13 6
44 13 68 7 24 14 64 16 88 1 24 6 51 10 60 5 9 12 45 16 81 4 36 13 80 21 98
l13 32 320 0 c177 0 321 -4 321 -8z m280 -11 c0 -11 -7 -55 -16 -98 -9 -43
-18 -98 -21 -123 -2 -25 -9 -63 -14 -85 -6 -22 -10 -48 -10 -58 0 -10 -4 -30
-9 -43 -9 -23 -13 -24 -106 -24 l-96 0 5 53 c3 28 10 75 16 102 25 115 41 209
41 239 0 49 14 56 117 56 85 0 93 -2 93 -19z m446 -38 c-3 -32 -12 -94 -20
-138 -22 -114 -23 -124 -31 -180 -4 -27 -12 -56 -17 -62 -12 -15 -198 -18
-198 -4 0 9 45 288 57 351 3 19 7 40 8 45 6 41 15 45 112 45 l95 0 -6 -57z
m679 47 c3 -5 0 -38 -6 -74 -10 -51 -16 -66 -33 -70 -12 -3 -101 -6 -199 -6
-188 0 -184 1 -189 -50 l-3 -25 180 -2 c99 -1 188 -2 199 -2 14 -1 17 -6 12
-23 -4 -13 -8 -37 -10 -54 -9 -74 -19 -120 -30 -126 -15 -10 -586 -10 -586 0
0 7 59 357 65 382 2 8 4 23 4 32 1 9 9 19 19 21 35 9 571 7 577 -3z m509 -1
c6 -6 -10 -109 -22 -139 -3 -8 -4 -19 -3 -23 3 -17 -42 -253 -52 -264 -6 -9
-40 -13 -104 -13 l-95 0 5 38 c9 60 67 386 72 400 4 11 27 13 99 10 52 -1 97
-6 100 -9z m-2776 -585 c27 -19 30 -54 3 -54 -10 0 -21 9 -24 21 -4 16 -12 20
-39 17 l-33 -3 -3 -66 c-2 -45 1 -69 10 -77 19 -15 65 -3 71 19 6 23 37 25 37
2 0 -33 -31 -53 -80 -53 -69 0 -82 19 -78 111 3 67 5 75 28 86 34 17 81 16
108 -3z m1829 -10 c16 -22 17 -76 1 -92 -7 -7 -34 -12 -60 -12 l-48 0 0 -41
c0 -33 -3 -40 -17 -37 -15 3 -18 17 -21 97 -2 69 1 97 10 103 22 15 121 1 135
-18z m-1671 0 c28 -7 44 -44 44 -97 0 -61 -21 -87 -72 -87 -63 0 -78 20 -78
101 0 64 1 68 28 77 32 12 50 14 78 6z m144 -63 c13 -28 27 -51 31 -51 4 0 9
25 11 55 5 90 23 64 23 -32 0 -71 -3 -88 -15 -91 -11 -2 -26 17 -45 58 -16 33
-32 60 -37 60 -4 0 -8 -27 -8 -60 0 -47 -3 -60 -15 -60 -12 0 -15 16 -15 88 0
49 3 92 6 95 14 13 41 -13 64 -62z m204 63 c29 -11 16 -24 -24 -24 -37 0 -40
-2 -40 -28 0 -24 4 -27 30 -27 40 0 43 -19 3 -23 -28 -3 -33 -7 -33 -30 0 -24
4 -27 35 -27 19 0 35 -4 35 -10 0 -5 -24 -10 -52 -10 l-53 0 -3 79 c-2 44 -1
85 2 93 6 13 71 18 100 7z m168 -11 c10 -9 18 -22 18 -30 0 -18 -27 -16 -38 3
-6 10 -19 14 -38 12 -28 -3 -29 -4 -29 -63 l0 -60 33 -3 c22 -2 34 2 38 12 7
18 34 22 34 5 0 -33 -22 -49 -68 -49 -27 0 -53 5 -60 12 -7 7 -12 41 -12 81 0
55 4 73 18 83 24 19 82 17 104 -3z m178 2 c0 -9 -9 -15 -25 -15 -25 0 -25 -1
-25 -81 0 -60 -3 -80 -12 -77 -9 3 -14 31 -16 81 -3 74 -4 77 -27 77 -24 0
-32 10 -18 23 3 4 33 7 65 7 45 0 58 -3 58 -15z m137 3 c6 -7 17 -43 26 -79 9
-36 19 -73 23 -82 4 -12 1 -17 -11 -17 -9 0 -19 9 -22 20 -8 29 -78 29 -86 0
-5 -21 -27 -28 -27 -9 0 10 31 123 45 167 3 6 13 12 23 12 11 0 24 -6 29 -12z
m223 -89 c0 -83 -1 -89 -21 -89 -15 0 -27 15 -47 60 -15 32 -30 59 -34 60 -5
0 -8 -27 -8 -60 0 -47 -3 -60 -15 -60 -12 0 -15 17 -15 90 0 82 2 90 19 90 14
0 28 -17 46 -55 15 -30 31 -55 36 -55 5 0 9 24 9 53 0 30 3 57 6 60 17 17 24
-11 24 -94z m148 85 c19 -13 22 -24 22 -75 0 -89 -8 -99 -80 -99 l-60 0 0 88
c0 49 3 92 7 95 12 13 89 7 111 -9z m173 6 c16 -9 19 -22 19 -76 0 -87 -10
-104 -62 -104 -63 0 -78 20 -78 101 0 64 1 68 28 77 36 14 69 14 93 2z m457
-7 c2 -9 -9 -13 -38 -13 -39 0 -41 -1 -38 -27 2 -23 8 -28 32 -28 16 0 31 -6
33 -12 3 -9 -7 -13 -32 -13 -34 0 -36 -2 -33 -27 3 -23 8 -27 37 -28 19 0 36
-6 39 -13 3 -10 -10 -12 -54 -10 l-59 3 -3 79 c-2 44 0 85 2 93 7 18 107 14
114 -4z m153 7 c10 -6 19 -17 19 -25 0 -17 -26 -20 -35 -5 -3 6 -19 10 -36 10
-24 0 -29 -4 -29 -25 0 -25 7 -29 48 -25 33 2 52 -17 52 -54 0 -44 -16 -56
-72 -56 -38 0 -50 4 -58 21 -15 27 -6 35 23 21 47 -24 77 -18 77 13 0 23 -4
25 -45 25 -48 0 -69 21 -63 63 5 38 76 60 119 37z m170 0 c10 -6 19 -17 19
-25 0 -17 -26 -20 -35 -5 -3 6 -19 10 -36 10 -24 0 -29 -4 -29 -25 0 -22 4
-25 38 -25 21 0 43 -5 50 -12 16 -16 16 -70 0 -86 -28 -28 -128 -5 -128 30 0
13 26 9 39 -5 6 -8 23 -12 41 -9 24 3 30 9 30 28 0 22 -4 24 -45 24 -48 0 -65
16 -65 64 0 17 8 27 28 34 36 14 69 14 93 2z m164 -2 c23 -10 25 -16 25 -83 0
-42 -5 -76 -12 -83 -7 -7 -31 -12 -54 -12 -57 0 -74 24 -74 106 0 59 2 63 28
72 37 14 57 14 87 0z m188 -79 c9 -36 19 -73 23 -82 4 -12 1 -17 -11 -17 -9 0
-19 9 -22 19 -6 22 -23 31 -49 26 -11 -2 -22 -4 -26 -4 -5 -1 -8 -7 -8 -15 0
-16 -18 -31 -27 -23 -3 3 5 44 17 91 19 70 27 86 44 89 31 5 41 -10 59 -84z
m172 79 c30 -13 33 -38 5 -38 -11 0 -20 5 -20 10 0 6 -16 10 -35 10 -31 0 -35
-3 -35 -25 0 -21 5 -25 29 -25 52 0 81 -17 81 -46 0 -42 -26 -64 -75 -64 -29
0 -47 6 -60 20 -17 19 -17 20 1 27 10 4 19 2 22 -5 2 -7 19 -12 38 -12 30 0
34 3 34 25 0 22 -4 25 -37 25 -54 0 -65 11 -61 56 2 31 8 40 28 45 38 11 57
10 85 -3z"/>
<path d="M1329 780 c-4 -3 -10 -21 -11 -40 l-3 -35 138 -3 137 -3 2 26 c4 65
15 60 -125 60 -71 0 -133 -2 -138 -5z"/>
<path d="M4100 290 l0 -41 38 3 c35 3 37 5 37 38 0 33 -2 35 -37 38 l-38 3 0
-41z"/>
<path d="M2472 243 c3 -72 5 -73 61 -64 4 0 7 30 7 66 l0 65 -35 0 -36 0 3
-67z"/>
<path d="M3331 287 c-17 -43 -14 -67 8 -67 28 0 30 9 16 55 l-12 40 -12 -28z"/>
<path d="M3650 245 c0 -36 4 -66 10 -66 6 -1 17 -1 25 -1 8 0 20 0 25 1 6 0
10 30 10 66 l0 65 -35 0 -35 0 0 -65z"/>
<path d="M3827 303 c-4 -3 -7 -30 -7 -59 0 -54 14 -74 48 -68 6 1 17 2 22 3 6
0 10 30 10 66 l0 65 -33 0 c-19 0 -37 -3 -40 -7z"/>
<path d="M4774 296 c-3 -7 -4 -35 -2 -62 3 -42 6 -49 28 -54 43 -11 50 -2 50
66 l0 64 -35 0 c-21 0 -38 -6 -41 -14z"/>
<path d="M4973 265 c-10 -43 -9 -45 12 -45 12 0 24 2 27 5 7 8 -12 85 -22 85
-3 0 -11 -20 -17 -45z"/>
</g>
</svg>
